<svg xmlns="http://www.w3.org/2000/svg" width="300" height="72" viewBox="0 0 300 72" role="img" aria-label="For You">
  <rect width="300" height="72" rx="36" fill="#211F26" stroke="#49454F" stroke-width="1"/>
  <rect x="12" y="12" width="48" height="48" rx="16" fill="#4F378B"/>
  <g transform="translate(24,24)">
    <path d="M19 9l1.25-2.75L23 5l-2.75-1.25L19 1l-1.25 2.75L15 5l2.75 1.25L19 9zm-7.5.5L9 4 6.5 9.5 1 12l5.5 2.5L9 20l2.5-5.5L17 12l-5.5-2.5zM19 15l-1.25 2.75L15 19l2.75 1.25L19 23l1.25-2.75L23 19l-2.75-1.25L19 15z" fill="#EADDFF"/>
  </g>
  <text x="76" y="43" font-family="Roboto,'Google Sans','Segoe UI',system-ui,sans-serif" font-size="18" font-weight="600" fill="#E6E1E5">For You</text>
</svg>
