<svg xmlns="http://www.w3.org/2000/svg" width="300" height="72" viewBox="0 0 300 72" role="img" aria-label="Curiosity cards">
  <rect width="300" height="72" rx="36" fill="#211F26" stroke="#49454F" stroke-width="1"/>
  <rect x="12" y="12" width="48" height="48" rx="16" fill="#4F378B"/>
  <g transform="translate(24,24)">
    <path d="M20 4H4c-1.11 0-2 .89-2 2v12c0 1.1.89 2 2 2h16c1.1 0 2-.9 2-2V6c0-1.11-.9-2-2-2zm0 14H4V6h16v12zm-6-7h2v2h-2v-2zm-4 0h2v2h-2v-2zm-4 0h2v2H6v-2z" fill="#EADDFF"/>
  </g>
  <text x="76" y="43" font-family="Roboto,'Google Sans','Segoe UI',system-ui,sans-serif" font-size="18" font-weight="600" fill="#E6E1E5">Curiosity cards</text>
</svg>
