<svg xmlns="http://www.w3.org/2000/svg" width="880" height="64" viewBox="0 0 880 64" role="img" aria-label="What makes it different">
  <defs>
    <linearGradient id="gheaderfeatures" x1="0%" y1="50%" x2="100%" y2="50%">
      <stop offset="0%" stop-color="#4F378B"/>
      <stop offset="42%" stop-color="#211F26"/>
      <stop offset="100%" stop-color="#141218"/>
    </linearGradient>
  </defs>
  <rect width="880" height="64" rx="16" fill="url(#gheaderfeatures)" stroke="#49454F" stroke-width="1"/>
  <rect x="16" y="12" width="40" height="40" rx="12" fill="#D0BCFF"/>
  <g transform="translate(24,20)">
    <path d="M19 9l1.25-2.75L23 5l-2.75-1.25L19 1l-1.25 2.75L15 5l2.75 1.25L19 9zm-7.5.5L9 4 6.5 9.5 1 12l5.5 2.5L9 20l2.5-5.5L17 12l-5.5-2.5zM19 15l-1.25 2.75L15 19l2.75 1.25L19 23l1.25-2.75L23 19l-2.75-1.25L19 15z" fill="#381E72"/>
  </g>
  <text x="72" y="40" font-family="Roboto,'Google Sans','Segoe UI',system-ui,sans-serif" font-size="22" font-weight="600" letter-spacing="0.2" fill="#E6E1E5">What makes it different</text>
</svg>
