<svg xmlns="http://www.w3.org/2000/svg" width="880" height="64" viewBox="0 0 880 64" role="img" aria-label="Contributing">
  <defs>
    <linearGradient id="gheadercontributing" x1="0%" y1="50%" x2="100%" y2="50%">
      <stop offset="0%" stop-color="#4F378B"/>
      <stop offset="42%" stop-color="#211F26"/>
      <stop offset="100%" stop-color="#141218"/>
    </linearGradient>
  </defs>
  <rect width="880" height="64" rx="16" fill="url(#gheadercontributing)" stroke="#49454F" stroke-width="1"/>
  <rect x="16" y="12" width="40" height="40" rx="12" fill="#D0BCFF"/>
  <g transform="translate(24,20)">
    <path d="M16 11c1.66 0 2.99-1.34 2.99-3S17.66 5 16 5s-3 1.34-3 3 1.34 3 3 3zm-8 0c1.66 0 2.99-1.34 2.99-3S9.66 5 8 5 5 6.34 5 8s1.34 3 3 3zm0 2c-2.33 0-7 1.17-7 3.5V19h14v-2.5c0-2.33-4.67-3.5-7-3.5zm8 0c-.29 0-.62.02-.97.05 1.16.84 1.97 1.97 1.97 3.45V19h6v-2.5c0-2.33-4.67-3.5-7-3.5z" fill="#381E72"/>
  </g>
  <text x="72" y="40" font-family="Roboto,'Google Sans','Segoe UI',system-ui,sans-serif" font-size="22" font-weight="600" letter-spacing="0.2" fill="#E6E1E5">Contributing</text>
</svg>
