<svg xmlns="http://www.w3.org/2000/svg" width="880" height="64" viewBox="0 0 880 64" role="img" aria-label="More features">
  <defs>
    <linearGradient id="gheadermore" x1="0%" y1="50%" x2="100%" y2="50%">
      <stop offset="0%" stop-color="#4F378B"/>
      <stop offset="42%" stop-color="#211F26"/>
      <stop offset="100%" stop-color="#141218"/>
    </linearGradient>
  </defs>
  <rect width="880" height="64" rx="16" fill="url(#gheadermore)" stroke="#49454F" stroke-width="1"/>
  <rect x="16" y="12" width="40" height="40" rx="12" fill="#D0BCFF"/>
  <g transform="translate(24,20)">
    <path d="M3 17v2h6v-2H3zm0-8v2h10V9H3zm0-4v2h10V5H3zm10 16v-2h8v-2h-8v-2h-2v6h2zM7 9v2H3v2h4v2h2V9H7zm14 4v-2H11v2h10zm-6-4h2V7h4V5h-4V3h-2v6z" fill="#381E72"/>
  </g>
  <text x="72" y="40" font-family="Roboto,'Google Sans','Segoe UI',system-ui,sans-serif" font-size="22" font-weight="600" letter-spacing="0.2" fill="#E6E1E5">More features</text>
</svg>
