<svg xmlns="http://www.w3.org/2000/svg" width="240" height="72" viewBox="0 0 240 72" role="img" aria-label="Download on GitHub">
  <defs>
    <linearGradient id="ghBg" x1="0%" y1="0%" x2="100%" y2="100%">
      <stop offset="0%" stop-color="#4F378B"/>
      <stop offset="100%" stop-color="#381E72"/>
    </linearGradient>
  </defs>
  <rect width="240" height="72" rx="20" fill="url(#ghBg)"/>
  <rect x="1" y="1" width="238" height="70" rx="19" fill="none" stroke="#D0BCFF" stroke-opacity="0.35" stroke-width="1.5"/>
  <circle cx="46" cy="36" r="22" fill="#D0BCFF"/>
  <g transform="translate(34 24)">
    <path fill="#381E72" d="M12 0C5.37 0 0 5.37 0 12c0 5.3 3.44 9.8 8.21 11.39.6.11.82-.26.82-.58 0-.28-.01-1.04-.02-2.04-3.34.73-4.04-1.61-4.04-1.61-.55-1.39-1.33-1.76-1.33-1.76-1.09-.74.08-.73.08-.73 1.2.09 1.84 1.24 1.84 1.24 1.07 1.84 2.81 1.3 3.5 1 .11-.78.42-1.31.76-1.61-2.67-.3-5.47-1.33-5.47-5.93 0-1.31.47-2.38 1.24-3.22-.12-.3-.54-1.52.12-3.18 0 0 1.01-.32 3.3 1.23.96-.27 1.98-.4 3-.4s2.04.14 3 .4c2.29-1.55 3.3-1.23 3.3-1.23.66 1.66.24 2.88.12 3.18.77.84 1.24 1.91 1.24 3.22 0 4.61-2.81 5.62-5.48 5.92.43.37.81 1.1.81 2.22 0 1.6-.01 2.89-.01 3.29 0 .32.22.7.83.58C20.56 21.8 24 17.3 24 12 24 5.37 18.63 0 12 0z"/>
  </g>
  <text x="84" y="29" font-family="Roboto, 'Google Sans', 'Segoe UI', system-ui, sans-serif" font-size="10" font-weight="600" letter-spacing="1.4" fill="#EADDFF">DOWNLOAD APK</text>
  <text x="84" y="50" font-family="Roboto, 'Google Sans', 'Segoe UI', system-ui, sans-serif" font-size="20" font-weight="700" fill="#FFFFFF">on GitHub</text>
</svg>
