<svg xmlns="http://www.w3.org/2000/svg" viewBox="0 0 220 70" width="220" height="70">
  <defs>
    <linearGradient id="card-grad" x1="0%" y1="0%" x2="100%" y2="100%">
      <stop offset="0%" stop-color="#0f172a"/>
      <stop offset="100%" stop-color="#020617"/>
    </linearGradient>
  </defs>
  <!-- Card Outer -->
  <rect width="220" height="70" rx="8" fill="url(#card-grad)" stroke="#1e293b" stroke-width="1.2"/>
  <!-- Google Play Icon -->
  <g transform="translate(14, 18) scale(1.05)">
    <path d="M 1.5,0.7 C 0.7,1.5 0.2,2.8 0.2,4.4 L 0.2,25.6 C 0.2,27.2 0.7,28.5 1.5,29.3 L 1.6,29.4 L 15.7,15.3 L 15.7,14.7 L 1.6,0.6 L 1.5,0.7 Z" fill="#EA4335"/>
    <path d="M 19.7,18.8 L 15.7,14.7 L 15.7,13.3 L 19.7,9.2 L 19.8,9.3 L 24.7,12.1 C 26.1,12.9 26.1,14.2 24.7,15.0 L 19.8,18.8 Z" fill="#FBBC05"/>
    <path d="M 19.8,9.3 L 1.6,0.1 C 0.9,-0.3 0.2,0.1 0.2,1.2 L 15.7,14.7 L 19.8,9.3 Z" fill="#4285F4"/>
    <path d="M 19.8,18.7 L 15.7,14.7 L 0.2,28.2 C 0.5,29.3 1.3,29.5 2.1,29.0 L 19.8,18.7 Z" fill="#34A853"/>
  </g>
  <!-- Vertical Divider -->
  <line x1="48" y1="16" x2="48" y2="54" stroke="#1e293b" stroke-width="1.2"/>
  <!-- Text Elements (Centered in the text region) -->
  <g fill="#FFFFFF" font-family="-apple-system, BlinkMacSystemFont, 'Segoe UI', Roboto, Helvetica, Arial, sans-serif">
    <text x="134" y="28" text-anchor="middle" font-size="8" font-weight="600" fill="#94a3b8" letter-spacing="0.6">COMING SOON ON</text>
    <text x="134" y="48" text-anchor="middle" font-size="16" font-weight="700" fill="#ffffff" letter-spacing="0.2">Google Play</text>
  </g>
</svg>
